<?xml version="1.0" encoding="UTF-8" standalone="no"?>
<!-- Created with Inkscape (http://www.inkscape.org/) -->

<svg
   width="210mm"
   height="297mm"
   viewBox="0 0 210 297"
   version="1.1"
   id="svg5"
   inkscape:version="1.2 (dc2aedaf03, 2022-05-15)"
   sodipodi:docname="drawing.svg"
   xmlns:inkscape="http://www.inkscape.org/namespaces/inkscape"
   xmlns:sodipodi="http://sodipodi.sourceforge.net/DTD/sodipodi-0.dtd"
   xmlns="http://www.w3.org/2000/svg"
   xmlns:svg="http://www.w3.org/2000/svg">
  <sodipodi:namedview
     id="namedview7"
     pagecolor="#ffffff"
     bordercolor="#000000"
     borderopacity="0.25"
     inkscape:showpageshadow="2"
     inkscape:pageopacity="0.0"
     inkscape:pagecheckerboard="0"
     inkscape:deskcolor="#d1d1d1"
     inkscape:document-units="mm"
     showgrid="false"
     inkscape:zoom="0.99276681"
     inkscape:cx="449.24951"
     inkscape:cy="566.59831"
     inkscape:window-width="1920"
     inkscape:window-height="986"
     inkscape:window-x="-11"
     inkscape:window-y="-11"
     inkscape:window-maximized="1"
     inkscape:current-layer="layer1" />
  <defs
     id="defs2" />
  <g
     inkscape:label="Layer 1"
     inkscape:groupmode="layer"
     id="layer1">
    <path
       style="fill:#000000;stroke-width:0.264583"
       id="path58"
       d="m 86.282926,71.964195 c -2.438551,5.441034 -5.479619,10.587119 -8.491614,15.724306 -1.526215,2.487911 -2.994459,5.01296 -4.566158,7.47295 -0.972939,1.522822 -2.018141,2.997813 -3.031993,4.493238 -0.532344,0.799461 -1.047073,1.611041 -1.555131,2.426091 -0.176501,0.28315 -0.361241,0.56532 -0.477541,0.87849 1.203738,0.6065 2.3691,1.29607 3.611216,1.81949 0.115353,0.0486 0.230632,-0.0978 0.342831,-0.15327 0.175644,-0.0869 0.34543,-0.18522 0.520271,-0.27372 1.206641,-0.61073 2.181866,-0.86907 3.491881,-1.21241 3.148153,-0.65315 6.354533,-0.92596 9.548231,-1.24889 0.929888,-0.0126 1.929116,-0.21551 2.842559,0.07 0.150129,0.0469 0.286154,0.13069 0.42923,0.19604 0,0 -3.102149,-2.422836 -3.102149,-2.422836 v 0 c -1.084374,-0.29891 -2.193928,-0.196011 -3.301455,-0.06658 -3.189057,0.380256 -6.393056,0.678866 -9.544307,1.319576 -1.26271,0.32856 -2.452298,0.66709 -3.639722,1.20931 -0.178752,0.0816 -0.355536,0.16749 -0.533095,0.25168 -0.138303,0.0656 -0.537501,0.10654 -0.414491,0.19762 1.049255,0.77693 2.248093,1.32828 3.372138,1.99241 -0.03627,0.0313 -0.107558,0.14164 -0.10881,0.0938 -0.0024,-0.0884 0.06598,-0.16421 0.104886,-0.24359 0.07388,-0.15075 0.15126,-0.29987 0.233262,-0.44636 0.272034,-0.48596 0.551101,-0.96802 0.836131,-1.44648 0.204235,-0.34283 0.418084,-0.67984 0.627126,-1.01976 0.969674,-1.52699 1.975908,-3.030414 2.914978,-4.576795 1.515904,-2.496265 2.955666,-5.038857 4.44192,-7.552619 2.97705,-5.166214 5.976525,-10.320763 8.86796,-15.535441 0,0 -3.418154,-1.946243 -3.418154,-1.946243 z" />
    <path
       style="fill:#000000;stroke-width:0.264583"
       id="path60"
       d="m 87.36001,73.772426 c 3.348606,5.247185 6.66019,10.518923 9.920086,15.821837 0.360294,0.560718 0.718977,1.122476 1.080884,1.682155 0.718656,1.111379 1.041554,1.629264 1.80759,2.674844 0.90432,1.234321 1.86401,2.43146 2.79562,3.645268 1.13571,1.459381 2.13147,3.01781 3.24089,4.49639 0.0426,0.0603 0.0741,0.23145 0.12793,0.18087 0.39195,-0.36848 0.12866,-0.50502 -0.14293,-0.66309 -0.94807,-0.55178 -2.00969,-0.88643 -3.03676,-1.25068 -2.34613,-0.79367 -4.70094,-1.568311 -7.079271,-2.260766 -0.20791,-0.0538 -0.415817,-0.107608 -0.623724,-0.161411 0,0 3.10823,2.381337 3.10823,2.381337 v 0 c 0.200165,0.0523 0.400333,0.10456 0.600498,0.15684 2.353247,0.67447 4.689667,1.41213 6.996597,2.23132 0.44457,0.16932 0.89477,0.32456 1.33372,0.50797 1.51247,0.63196 0.63082,0.30651 1.77327,0.87369 0.12664,0.0629 0.25731,0.20884 0.39132,0.16374 0.57977,-0.19512 0.32152,-0.40271 0.16747,-0.60896 -1.18462,-1.47143 -2.20752,-3.05686 -3.36595,-4.548293 -2.02271,-2.609929 -4.06205,-5.208619 -5.80877,-8.01689 -3.325788,-5.209376 -6.697996,-10.39409 -9.768207,-15.760404 0,0 -3.518493,-1.545767 -3.518493,-1.545767 z" />
    <path
       style="fill:#000000;stroke-width:0.264583"
       id="path62"
       d="m 82.374371,102.75477 c -5.173411,5.03028 -9.917459,10.47955 -14.785427,15.80064 -1.929693,2.10814 -3.989514,4.09072 -5.983179,6.13624 -0.469278,0.48149 -1.681157,1.36422 -1.421596,2.33996 0.101685,0.38224 0.500997,0.61221 0.751494,0.91832 1.636823,0.83019 3.215235,1.7873 4.910468,2.49057 0.661559,0.27445 1.400874,0.30141 2.107102,0.42068 2.845176,0.48052 5.723493,0.56276 8.599392,0.69619 2.459321,0.13789 4.919313,0.23434 7.354422,0.61955 0.846627,0.14276 0.446529,0.059 1.202039,0.24267 0,0 -3.126505,-2.37549 -3.126505,-2.37549 v 0 c -0.753901,-0.14477 -0.35747,-0.0766 -1.190093,-0.19987 -2.409375,-0.32302 -4.837927,-0.38766 -7.264098,-0.50357 -2.85451,-0.10736 -5.716119,-0.18356 -8.530611,-0.72462 -0.71234,-0.13694 -1.733357,-1.10931 -2.119103,-0.495 -0.366972,0.58442 1.08168,0.85722 1.622517,1.28583 -0.297833,-0.19211 -0.714592,-0.27038 -0.8935,-0.57632 -0.496824,-0.84961 0.842803,-1.8785 1.147931,-2.21416 1.9138,-2.10525 3.924382,-4.12463 5.809607,-6.25672 4.324467,-4.79568 8.54252,-9.75328 13.341932,-14.09051 0.565671,-0.5112 1.168699,-0.97947 1.75305,-1.4692 0,0 -3.285842,-2.04519 -3.285842,-2.04519 z" />
    <path
       style="fill:#000000;stroke-width:0.264583"
       id="path64"
       d="m 99.782954,105.21358 c 6.068876,7.05454 11.941756,14.27808 17.720916,21.57133 2.16185,2.77443 4.34241,5.53418 6.54754,8.27428 0.29349,0.37124 0.48096,0.58931 0.73217,0.9657 0.0324,0.0486 0.0653,0.20886 0.0841,0.15361 0.0304,-0.0892 0.0346,-0.22351 -0.0411,-0.27959 -0.24569,-0.18201 -1.85953,-0.57261 -1.88767,-0.58016 -4.00946,-1.04146 -8.13514,-1.42712 -12.22887,-1.97101 -1.94362,-0.24389 -3.8761,-0.56422 -5.80846,-0.8826 0,0 3.0283,2.27306 3.0283,2.27306 v 0 c 1.90438,0.28374 3.80874,0.56891 5.71979,0.80508 4.13314,0.54663 8.29386,0.99623 12.32522,2.10984 0.4184,0.12077 0.83301,0.2555 1.25519,0.36231 0.2778,0.0703 0.55933,0.2091 0.843,0.16851 1.04023,-0.14882 -0.31009,-1.40938 -0.45764,-1.60819 -2.33904,-2.77403 -4.59966,-5.61484 -6.90113,-8.41999 -5.8207,-7.1513 -11.70686,-14.24968 -17.44385,-21.46882 0,0 -3.487466,-1.47336 -3.487466,-1.47336 z" />
    <path
       style="fill:#000000;stroke-width:0.264583"
       id="path66"
       d="m 82.3446,133.92119 c 0.585431,3.48137 0.992886,6.99116 1.280846,10.50894 0.199088,2.06527 0.357954,4.13349 0.420684,6.20752 0.01857,0.705 0.02397,1.41025 0.02357,2.11547 -9.8e-5,0.17801 -0.02135,0.73512 0.04365,0.93016 0.0492,0.14761 0.154284,0.27024 0.231425,0.40537 1.383668,0.66961 2.676592,1.57407 4.151003,2.00883 0.504913,0.14889 1.033746,-0.20192 1.544487,-0.32938 0.722233,-0.18024 1.432692,-0.4051 2.152888,-0.59332 0.870347,-0.22747 1.739564,-0.46153 2.618391,-0.65365 2.46716,-0.53935 3.627154,-0.6694 6.135116,-1.04456 2.61711,-0.30673 5.24931,-0.45526 7.88246,-0.52053 1.48862,-0.0369 2.95831,-0.0466 4.44178,0.0718 0.36473,-0.0901 2.05507,0.55857 2.28213,0.34197 0.29947,-0.28567 0.14118,-0.57189 0.0778,-0.90592 -1.42967,-3.33596 -2.62169,-6.76227 -3.78345,-10.19838 -0.84228,-2.45578 -1.43679,-4.98387 -2.1421,-7.47957 -0.0538,-0.18691 -0.10766,-0.37382 -0.16149,-0.56073 0,0 -3.54462,-1.67693 -3.54462,-1.67693 v 0 c 0.0599,0.18953 0.11985,0.37907 0.17978,0.5686 0.79915,2.51444 1.43299,5.07954 2.30413,7.57173 1.16537,3.3742 2.30452,6.75834 3.58423,10.09159 0.0534,0.10695 0.079,0.23311 0.16013,0.32086 0.0242,0.0262 0.12835,-0.0207 0.0989,-0.0408 -0.0529,-0.0361 -0.12792,-0.0104 -0.19093,-0.0221 -0.65154,-0.12002 -1.29492,-0.28966 -1.96415,-0.29115 -4.05502,-0.16679 -8.12155,0.27109 -12.150219,0.66985 -2.484469,0.3741 -3.746656,0.52925 -6.201569,1.03672 -0.895768,0.18517 -1.781926,0.4141 -2.672768,0.62168 -0.736068,0.17151 -1.464715,0.37847 -2.207961,0.51558 -0.518141,0.0956 -1.812438,-0.28649 -1.570207,0.18141 0.490027,0.94655 1.74403,1.22584 2.616044,1.83876 -0.109066,-0.0644 -0.253032,-0.0905 -0.3272,-0.19314 -0.115935,-0.16047 -0.0907,-0.75637 -0.09324,-0.88932 -0.01363,-0.71392 -0.03258,-1.42774 -0.05517,-2.14143 -0.08007,-2.09127 -0.221469,-4.17562 -0.467408,-6.25493 -0.345236,-3.5077 -0.838636,-6.9971 -1.22918,-10.49977 0,0 -3.467798,-1.71124 -3.467798,-1.71124 z" />
    <circle
       id="path68"
       style="fill:#000000;stroke:#000000;stroke-width:0.264583"
       cx="146.8476"
       cy="127.12577"
       r="0.035499014" />
  </g>
</svg>
